<svg id="svg" version="1.1" xmlns="http://www.w3.org/2000/svg" xmlns:xlink="http://www.w3.org/1999/xlink" width="400" height="249.4988434849653" viewBox="0, 0, 400,249.4988434849653"><g id="svgg"><path id="path0" d="M208.864 75.637 C 208.524 75.773,207.963 75.862,207.617 75.835 C 207.270 75.808,206.787 75.872,206.542 75.977 C 206.298 76.081,205.652 76.182,205.107 76.199 C 204.563 76.217,204.117 76.306,204.117 76.396 C 204.117 76.486,203.875 76.496,203.579 76.419 C 203.164 76.310,203.089 76.358,203.253 76.629 C 203.423 76.913,203.393 76.923,203.096 76.683 C 202.876 76.505,202.590 76.471,202.385 76.598 C 202.196 76.714,201.891 76.752,201.707 76.681 C 201.523 76.611,201.372 76.662,201.372 76.795 C 201.372 76.927,201.075 76.979,200.712 76.910 C 200.346 76.840,200.113 76.885,200.191 77.011 C 200.268 77.136,200.060 77.366,199.729 77.523 C 199.375 77.690,199.190 77.704,199.281 77.556 C 199.367 77.418,199.189 77.437,198.888 77.599 C 198.586 77.760,198.187 77.834,198.000 77.762 C 197.814 77.691,197.622 77.750,197.574 77.895 C 197.526 78.039,197.154 78.177,196.747 78.202 C 196.340 78.227,195.783 78.369,195.508 78.517 C 195.234 78.665,194.587 78.923,194.071 79.089 C 193.555 79.255,193.197 79.495,193.275 79.621 C 193.353 79.747,193.270 79.867,193.090 79.888 C 192.911 79.909,192.651 79.940,192.514 79.956 C 192.026 80.014,190.643 80.662,190.643 80.832 C 190.643 80.927,190.250 81.159,189.769 81.347 C 189.289 81.536,188.896 81.788,188.896 81.908 C 188.896 82.028,188.804 82.069,188.692 81.999 C 188.579 81.930,188.212 82.129,187.876 82.441 C 187.539 82.752,187.135 82.965,186.978 82.912 C 186.821 82.860,186.621 83.041,186.535 83.315 C 186.447 83.590,185.991 83.939,185.513 84.097 C 185.038 84.254,184.713 84.485,184.791 84.612 C 184.869 84.738,184.809 84.841,184.659 84.841 C 184.296 84.841,182.272 86.900,182.360 87.180 C 182.398 87.299,182.257 87.332,182.047 87.251 C 181.837 87.171,181.692 87.189,181.725 87.291 C 181.757 87.394,181.110 88.148,180.287 88.968 C 179.464 89.788,178.622 90.795,178.416 91.206 C 178.210 91.616,177.901 92.042,177.730 92.152 C 177.558 92.262,177.417 92.509,177.417 92.701 C 177.417 92.893,177.274 93.140,177.099 93.250 C 176.625 93.548,175.801 94.901,175.876 95.259 C 175.912 95.430,175.825 95.571,175.682 95.571 C 175.538 95.571,175.421 95.743,175.421 95.953 C 175.421 96.163,175.246 96.402,175.032 96.484 C 174.819 96.566,174.705 96.793,174.780 96.988 C 174.866 97.213,174.810 97.278,174.627 97.165 C 174.434 97.045,174.391 97.124,174.497 97.401 C 174.585 97.630,174.575 97.817,174.475 97.817 C 174.375 97.817,174.146 98.053,173.965 98.342 C 173.785 98.631,173.757 98.793,173.903 98.703 C 174.065 98.603,174.110 98.690,174.019 98.927 C 173.937 99.140,173.781 99.314,173.671 99.314 C 173.434 99.314,172.676 101.448,172.676 102.118 C 172.676 102.413,172.568 102.520,172.384 102.407 C 172.188 102.285,172.145 102.362,172.252 102.642 C 172.339 102.870,172.321 103.057,172.211 103.057 C 172.101 103.057,172.005 103.197,171.998 103.369 C 171.991 103.540,171.918 103.961,171.835 104.304 C 171.751 104.648,171.611 105.265,171.522 105.677 C 171.434 106.089,171.278 106.538,171.176 106.675 C 170.415 107.701,170.081 119.071,170.785 120.010 C 170.995 120.292,170.978 120.324,170.703 120.159 C 170.417 119.986,170.387 120.102,170.541 120.797 C 170.644 121.265,170.733 121.815,170.738 122.021 C 170.744 122.227,170.859 122.536,170.994 122.707 C 171.163 122.922,171.143 123.019,170.930 123.019 C 170.724 123.019,170.697 123.124,170.851 123.331 C 170.979 123.503,171.064 123.896,171.040 124.205 C 171.017 124.513,171.080 124.766,171.181 124.766 C 171.358 124.766,171.722 126.483,171.609 126.786 C 171.578 126.868,171.710 127.124,171.901 127.354 C 172.092 127.584,172.178 127.843,172.092 127.929 C 172.006 128.015,172.130 128.245,172.368 128.440 C 172.606 128.636,172.661 128.724,172.489 128.638 C 172.060 128.420,172.095 128.879,172.537 129.245 C 172.734 129.409,172.835 129.704,172.759 129.900 C 172.684 130.096,172.744 130.256,172.891 130.256 C 173.039 130.256,173.103 130.404,173.033 130.585 C 172.885 130.971,174.624 134.747,174.950 134.747 C 175.072 134.747,175.172 134.866,175.172 135.012 C 175.172 135.157,175.031 135.196,174.860 135.098 C 174.688 135.000,174.885 135.291,175.296 135.745 C 175.708 136.200,175.876 136.489,175.671 136.389 C 175.465 136.289,175.521 136.392,175.795 136.618 C 176.070 136.844,176.264 137.141,176.226 137.279 C 176.188 137.417,176.441 137.868,176.789 138.281 C 177.136 138.694,177.364 139.123,177.296 139.234 C 177.227 139.345,177.335 139.499,177.536 139.576 C 177.736 139.653,178.070 140.122,178.278 140.618 C 178.485 141.115,178.769 141.450,178.909 141.363 C 179.049 141.277,179.164 141.393,179.164 141.621 C 179.164 141.882,179.299 141.985,179.526 141.898 C 179.780 141.801,179.841 141.880,179.733 142.162 C 179.637 142.411,179.679 142.502,179.842 142.402 C 179.992 142.309,180.091 142.426,180.072 142.673 C 180.053 142.911,180.178 143.079,180.349 143.044 C 180.521 143.010,180.661 143.199,180.661 143.464 C 180.661 143.729,180.858 144.009,181.098 144.087 C 181.338 144.164,181.756 144.558,182.027 144.963 C 182.297 145.368,182.568 145.650,182.628 145.590 C 182.688 145.530,182.896 145.706,183.089 145.982 C 183.282 146.258,183.537 146.424,183.655 146.351 C 183.774 146.278,183.941 146.332,184.027 146.471 C 184.114 146.611,184.037 146.729,183.858 146.735 C 183.678 146.740,183.840 146.912,184.217 147.117 C 184.595 147.322,184.903 147.605,184.903 147.746 C 184.903 147.887,185.013 147.934,185.146 147.852 C 185.280 147.769,185.581 147.925,185.815 148.199 C 186.049 148.472,186.327 148.642,186.432 148.577 C 186.538 148.511,186.736 148.665,186.872 148.919 C 187.008 149.173,187.575 149.586,188.132 149.837 C 188.689 150.089,189.145 150.396,189.145 150.520 C 189.145 150.645,189.248 150.683,189.374 150.606 C 189.499 150.528,189.645 150.595,189.698 150.754 C 189.751 150.913,190.070 151.068,190.406 151.098 C 190.782 151.131,190.985 151.284,190.934 151.496 C 190.888 151.685,190.934 151.757,191.035 151.655 C 191.137 151.554,191.393 151.610,191.603 151.780 C 191.920 152.036,191.953 152.025,191.795 151.716 C 191.633 151.398,191.654 151.399,191.934 151.724 C 192.262 152.103,194.338 152.893,194.697 152.775 C 194.800 152.741,194.885 152.802,194.885 152.910 C 194.885 153.018,195.245 153.134,195.685 153.168 C 196.125 153.201,196.667 153.393,196.890 153.595 C 197.112 153.796,197.516 153.961,197.786 153.961 C 198.057 153.961,198.429 154.102,198.614 154.273 C 198.888 154.527,198.911 154.515,198.741 154.211 C 198.568 153.901,198.597 153.890,198.915 154.146 C 199.125 154.317,199.371 154.382,199.462 154.292 C 199.552 154.202,199.626 154.259,199.626 154.419 C 199.626 154.579,199.745 154.710,199.890 154.710 C 200.035 154.710,200.092 154.610,200.016 154.487 C 199.941 154.364,200.148 154.280,200.477 154.300 C 200.806 154.319,201.025 154.417,200.964 154.515 C 200.811 154.763,201.649 154.919,203.982 155.078 C 205.074 155.152,206.079 155.324,206.215 155.460 C 206.351 155.597,206.637 155.700,206.850 155.691 C 207.130 155.678,207.099 155.608,206.737 155.437 C 206.380 155.268,206.557 155.242,207.361 155.346 C 208.811 155.533,216.029 155.543,216.843 155.360 C 217.187 155.282,218.197 155.164,219.089 155.096 C 221.119 154.942,222.703 154.769,223.830 154.580 C 224.311 154.499,225.012 154.423,225.390 154.411 C 225.767 154.399,226.076 154.316,226.076 154.228 C 226.076 154.140,226.308 154.050,226.592 154.029 C 226.875 154.007,227.716 153.864,228.460 153.709 C 229.203 153.555,229.850 153.464,229.896 153.508 C 229.942 153.551,230.176 153.391,230.416 153.150 C 230.905 152.662,231.444 152.555,231.168 153.002 C 231.048 153.196,231.104 153.223,231.340 153.086 C 232.423 152.454,233.051 151.898,232.920 151.686 C 232.838 151.553,232.907 151.279,233.074 151.078 C 233.241 150.877,233.476 150.186,233.596 149.543 C 233.716 148.900,233.954 148.286,234.125 148.177 C 234.296 148.069,234.337 147.978,234.218 147.976 C 234.098 147.974,234.136 147.809,234.302 147.609 C 234.467 147.409,234.531 147.129,234.442 146.985 C 234.354 146.842,234.388 146.725,234.518 146.725 C 234.710 146.725,235.076 145.555,235.165 144.657 C 235.175 144.549,235.310 144.381,235.465 144.283 C 235.619 144.185,235.824 143.712,235.920 143.231 C 236.016 142.751,236.150 142.162,236.218 141.921 C 236.296 141.642,236.203 141.485,235.957 141.485 C 235.719 141.485,235.628 141.343,235.718 141.110 C 235.797 140.905,235.737 140.736,235.585 140.736 C 235.433 140.736,235.302 140.876,235.293 141.048 C 235.284 141.220,235.166 141.082,235.031 140.742 C 234.829 140.238,234.741 140.192,234.551 140.493 C 234.355 140.802,234.318 140.791,234.314 140.424 C 234.309 139.775,232.962 139.849,232.324 140.534 C 232.044 140.834,231.814 140.974,231.812 140.846 C 231.809 140.717,231.719 140.752,231.610 140.923 C 231.339 141.349,228.597 142.982,228.152 142.982 C 227.942 142.982,227.868 143.103,227.974 143.274 C 228.096 143.471,228.017 143.513,227.730 143.403 C 227.468 143.302,227.251 143.380,227.165 143.605 C 227.082 143.821,226.520 144.036,225.781 144.134 C 225.097 144.225,224.649 144.368,224.786 144.453 C 224.922 144.537,224.466 144.625,223.772 144.649 C 223.078 144.673,222.442 144.795,222.359 144.922 C 222.276 145.048,221.703 145.224,221.085 145.314 C 219.727 145.511,219.331 145.600,218.830 145.820 C 218.619 145.913,218.226 145.968,217.957 145.943 C 217.008 145.854,216.562 145.972,216.742 146.264 C 216.862 146.457,216.810 146.484,216.585 146.345 C 216.401 146.231,215.289 146.114,214.114 146.086 C 212.160 146.038,212.106 146.049,213.475 146.213 L 214.972 146.391 213.412 146.433 C 212.555 146.456,211.853 146.377,211.853 146.257 C 211.853 146.137,211.179 146.053,210.355 146.070 C 209.532 146.087,208.830 146.027,208.796 145.936 C 208.762 145.846,208.072 145.702,207.263 145.617 C 206.454 145.532,205.697 145.403,205.579 145.330 C 205.461 145.258,205.361 145.345,205.356 145.525 C 205.351 145.705,205.205 145.595,205.031 145.282 C 204.857 144.969,204.642 144.787,204.552 144.876 C 204.381 145.048,201.218 143.866,200.697 143.437 C 200.532 143.300,200.279 143.261,200.136 143.349 C 199.992 143.438,199.875 143.386,199.875 143.233 C 199.875 143.081,199.471 142.787,198.976 142.581 C 198.482 142.374,197.843 141.987,197.557 141.720 C 197.271 141.453,196.833 141.235,196.584 141.235 C 196.336 141.235,196.132 141.079,196.132 140.888 C 196.132 140.557,195.654 140.242,194.924 140.093 C 194.740 140.056,194.515 139.943,194.425 139.842 C 194.335 139.741,194.467 139.733,194.718 139.823 C 194.970 139.914,194.327 139.161,193.290 138.151 C 192.253 137.141,191.477 136.242,191.564 136.154 C 191.652 136.067,191.593 135.995,191.433 135.995 C 191.273 135.995,191.170 135.855,191.204 135.683 C 191.238 135.512,191.126 135.399,190.954 135.434 C 190.783 135.468,190.643 135.340,190.643 135.148 C 190.643 134.957,190.462 134.732,190.242 134.647 C 190.019 134.561,189.904 134.333,189.982 134.129 C 190.059 133.929,190.024 133.705,189.904 133.631 C 189.785 133.557,189.630 133.638,189.561 133.810 C 189.491 133.982,189.425 133.890,189.415 133.604 C 189.404 133.318,189.311 133.000,189.208 132.897 C 189.105 132.794,189.015 132.635,189.008 132.543 C 188.961 131.896,188.571 131.298,188.272 131.413 C 188.012 131.513,187.953 131.381,188.040 130.901 C 188.121 130.454,188.048 130.256,187.801 130.256 C 187.569 130.256,187.490 130.083,187.575 129.760 C 187.657 129.445,187.558 129.207,187.302 129.109 C 187.081 129.024,186.900 128.848,186.900 128.717 C 186.900 128.586,187.040 128.562,187.211 128.662 C 187.383 128.762,187.299 128.581,187.024 128.260 C 186.727 127.911,186.677 127.762,186.900 127.890 C 187.203 128.065,187.218 128.037,186.980 127.743 C 186.819 127.543,186.553 126.849,186.390 126.201 C 186.227 125.552,186.010 125.073,185.908 125.136 C 185.806 125.200,185.767 124.843,185.822 124.344 C 185.877 123.844,185.817 123.370,185.687 123.290 C 185.454 123.145,185.280 122.318,185.011 120.077 C 184.934 119.436,184.738 118.827,184.575 118.723 C 184.399 118.611,184.386 118.534,184.543 118.532 C 184.687 118.529,184.832 118.079,184.865 117.530 C 184.897 116.981,184.812 116.532,184.675 116.532 C 184.343 116.532,184.369 112.122,184.706 111.229 C 184.896 110.724,184.882 110.444,184.654 110.168 C 184.458 109.933,184.441 109.794,184.608 109.794 C 184.754 109.794,184.843 109.485,184.806 109.108 C 184.770 108.731,184.821 108.253,184.920 108.047 C 185.020 107.842,185.158 107.097,185.227 106.393 C 185.296 105.689,185.465 104.903,185.602 104.646 C 185.740 104.390,185.908 103.822,185.977 103.384 C 186.046 102.946,186.176 102.469,186.266 102.323 C 186.356 102.178,186.283 102.057,186.103 102.055 C 185.866 102.052,185.879 101.985,186.151 101.809 C 186.357 101.676,186.419 101.565,186.288 101.563 C 186.158 101.561,186.186 101.425,186.351 101.260 C 186.515 101.095,186.650 100.774,186.650 100.546 C 186.650 100.318,186.933 99.716,187.278 99.207 C 187.623 98.698,187.844 98.181,187.768 98.058 C 187.692 97.935,187.849 97.615,188.117 97.347 C 188.385 97.079,188.547 96.802,188.476 96.731 C 188.405 96.660,188.582 96.349,188.871 96.039 C 189.159 95.730,189.395 95.335,189.395 95.162 C 189.395 94.989,189.535 94.757,189.707 94.647 C 189.879 94.538,190.177 94.143,190.369 93.770 C 190.561 93.397,190.813 93.151,190.930 93.223 C 191.046 93.296,191.142 93.123,191.142 92.841 C 191.142 92.558,191.261 92.327,191.406 92.327 C 191.551 92.327,191.599 92.212,191.512 92.071 C 191.425 91.931,191.447 91.832,191.560 91.851 C 192.003 91.928,192.389 91.818,192.389 91.613 C 192.389 91.304,194.055 89.582,194.355 89.582 C 194.493 89.582,194.753 89.374,194.933 89.119 C 195.112 88.864,195.512 88.576,195.820 88.478 C 196.129 88.381,196.382 88.196,196.382 88.068 C 196.382 87.940,196.518 87.863,196.685 87.898 C 196.851 87.932,197.103 87.706,197.244 87.395 C 197.386 87.085,197.639 86.883,197.808 86.948 C 198.204 87.100,199.626 86.607,199.626 86.317 C 199.626 86.195,200.130 85.969,200.745 85.814 C 201.361 85.659,201.814 85.449,201.751 85.347 C 201.688 85.246,201.920 85.217,202.265 85.283 C 202.690 85.364,203.008 85.251,203.248 84.935 C 203.488 84.617,203.605 84.576,203.610 84.807 C 203.617 85.086,203.721 85.081,204.186 84.776 C 204.715 84.429,205.323 84.322,206.862 84.305 C 207.205 84.301,207.598 84.211,207.735 84.104 C 207.873 83.998,208.232 83.933,208.535 83.959 C 208.837 83.986,209.027 83.914,208.957 83.800 C 208.887 83.686,208.948 83.593,209.093 83.593 C 209.239 83.593,209.357 83.677,209.357 83.780 C 209.357 83.883,210.733 83.961,212.414 83.954 C 214.095 83.946,215.583 84.002,215.721 84.078 C 215.858 84.155,216.138 84.224,216.344 84.233 C 217.917 84.298,219.900 84.713,220.010 85.000 C 220.082 85.187,220.459 85.340,220.848 85.340 C 221.237 85.340,221.626 85.454,221.712 85.594 C 221.798 85.733,221.956 85.793,222.063 85.727 C 222.170 85.661,222.494 85.827,222.784 86.097 C 223.073 86.367,223.418 86.588,223.550 86.588 C 223.909 86.588,225.324 87.433,225.326 87.648 C 225.327 87.751,225.571 87.835,225.868 87.835 C 226.166 87.835,226.346 87.898,226.269 87.975 C 226.055 88.189,227.323 89.362,227.589 89.198 C 227.718 89.118,227.823 89.221,227.823 89.425 C 227.823 89.630,228.075 89.833,228.384 89.877 C 228.745 89.928,228.974 90.157,229.025 90.518 C 229.069 90.827,229.262 91.079,229.454 91.079 C 229.677 91.079,229.746 91.229,229.644 91.494 C 229.544 91.755,229.584 91.848,229.751 91.745 C 229.897 91.655,230.081 91.749,230.159 91.954 C 230.266 92.232,230.717 92.327,231.932 92.327 C 233.574 92.327,233.759 92.205,233.581 91.235 C 233.559 91.115,233.726 90.813,233.951 90.564 C 234.211 90.276,234.366 89.649,234.377 88.839 C 234.386 88.138,234.475 87.697,234.574 87.858 C 234.677 88.024,234.830 87.704,234.929 87.119 C 235.025 86.552,235.194 86.089,235.306 86.089 C 235.417 86.089,235.472 85.696,235.428 85.217 C 235.370 84.601,235.469 84.277,235.764 84.112 C 235.994 83.983,236.157 83.814,236.126 83.737 C 235.996 83.411,236.389 82.096,236.617 82.096 C 236.753 82.096,236.807 81.877,236.737 81.609 C 236.667 81.341,236.713 81.087,236.839 81.045 C 236.965 81.003,237.128 80.478,237.200 79.879 C 237.315 78.928,237.277 78.809,236.909 78.951 C 236.673 79.041,236.198 78.922,235.835 78.680 C 235.477 78.443,235.072 78.223,234.934 78.192 C 234.797 78.161,234.348 78.033,233.936 77.907 C 233.525 77.781,232.991 77.708,232.751 77.744 C 232.511 77.780,232.314 77.722,232.314 77.614 C 232.314 77.506,232.021 77.417,231.662 77.417 C 231.303 77.417,230.912 77.263,230.793 77.074 C 230.609 76.784,230.575 76.784,230.572 77.074 C 230.568 77.352,230.497 77.357,230.187 77.100 C 229.977 76.926,229.388 76.752,228.877 76.713 C 228.366 76.674,227.631 76.522,227.245 76.375 C 226.859 76.228,226.011 76.107,225.361 76.107 C 224.711 76.107,224.063 75.991,223.921 75.848 C 223.746 75.673,223.450 75.670,223.006 75.839 C 222.580 76.001,222.298 76.003,222.200 75.844 C 222.117 75.710,221.945 75.665,221.817 75.744 C 221.689 75.823,221.585 75.781,221.585 75.652 C 221.585 75.351,211.731 75.322,210.946 75.621 C 210.600 75.753,210.315 75.744,210.225 75.599 C 210.043 75.304,209.672 75.315,208.864 75.637 M94.623 77.155 C 94.458 77.320,94.323 77.664,94.323 77.919 C 94.323 78.174,94.223 78.320,94.100 78.244 C 93.811 78.066,93.575 78.693,93.575 79.636 C 93.575 80.068,93.470 80.314,93.325 80.225 C 93.188 80.140,93.075 80.252,93.075 80.474 C 93.075 80.706,92.958 80.805,92.799 80.707 C 92.611 80.591,92.580 80.715,92.701 81.098 C 92.817 81.462,92.788 81.603,92.620 81.499 C 92.460 81.400,92.368 81.636,92.382 82.115 C 92.394 82.543,92.303 82.966,92.178 83.056 C 91.131 83.814,91.319 84.016,93.139 84.089 C 94.750 84.153,96.061 84.238,96.643 84.315 C 96.753 84.330,97.136 84.651,97.495 85.028 C 97.854 85.405,98.057 85.546,97.946 85.340 C 97.791 85.054,97.815 85.032,98.048 85.246 C 98.216 85.401,98.386 85.794,98.427 86.120 C 98.548 87.074,98.674 87.449,98.939 87.644 C 99.094 87.758,99.068 87.829,98.874 87.831 C 98.629 87.834,98.639 88.029,98.921 88.703 C 99.121 89.181,99.187 89.631,99.068 89.705 C 98.949 89.778,98.937 90.146,99.042 90.521 C 99.147 90.897,99.183 93.929,99.123 97.259 C 99.063 100.590,99.085 103.500,99.172 103.727 C 99.406 104.337,99.472 117.503,99.240 117.359 C 99.131 117.292,99.059 120.498,99.079 124.483 C 99.100 128.468,99.214 131.762,99.333 131.803 C 99.452 131.844,99.581 132.579,99.619 133.436 C 99.657 134.293,99.750 134.995,99.827 134.996 C 99.903 134.996,99.971 135.250,99.979 135.558 C 100.029 137.729,100.076 138.012,100.354 137.840 C 100.549 137.720,100.595 137.794,100.492 138.062 C 100.407 138.284,100.511 138.812,100.723 139.237 C 100.934 139.662,101.145 140.201,101.190 140.435 C 101.235 140.669,101.294 140.889,101.322 140.923 C 101.402 141.022,101.494 141.450,101.528 141.874 C 101.546 142.088,101.661 142.200,101.785 142.124 C 101.909 142.047,102.130 142.328,102.277 142.749 C 102.682 143.913,104.095 145.976,104.486 145.976 C 104.677 145.976,104.758 146.098,104.665 146.247 C 104.481 146.546,106.021 148.270,106.312 148.090 C 106.412 148.029,106.632 148.145,106.802 148.350 C 106.972 148.554,107.032 148.721,106.937 148.721 C 106.842 148.721,106.933 148.890,107.138 149.095 C 107.344 149.301,107.633 149.470,107.780 149.470 C 107.927 149.470,108.047 149.571,108.047 149.695 C 108.047 149.819,108.384 150.037,108.796 150.181 C 109.208 150.324,109.545 150.558,109.545 150.700 C 109.545 150.841,109.825 151.028,110.168 151.114 C 110.512 151.200,110.792 151.361,110.792 151.471 C 110.792 151.742,112.833 152.714,113.401 152.714 C 113.652 152.714,114.017 152.910,114.214 153.150 C 114.421 153.403,114.492 153.429,114.381 153.213 C 114.223 152.903,114.256 152.892,114.573 153.148 C 114.783 153.319,115.039 153.375,115.140 153.273 C 115.242 153.172,115.471 153.289,115.651 153.534 C 115.830 153.779,116.073 153.958,116.192 153.932 C 116.310 153.905,116.963 154.141,117.643 154.456 C 118.501 154.853,118.909 154.938,118.977 154.734 C 119.050 154.515,119.162 154.512,119.412 154.719 C 119.598 154.873,120.120 155.057,120.573 155.127 C 121.027 155.198,121.536 155.370,121.706 155.510 C 121.876 155.650,122.306 155.691,122.663 155.601 C 123.101 155.491,123.256 155.527,123.142 155.711 C 123.029 155.894,123.374 155.990,124.182 156.002 C 133.781 156.139,136.159 156.121,136.421 155.909 C 136.586 155.775,136.844 155.741,136.993 155.833 C 137.142 155.925,137.450 155.851,137.676 155.667 C 137.969 155.429,138.033 155.423,137.900 155.646 C 137.797 155.817,137.825 155.958,137.962 155.958 C 138.099 155.958,138.278 155.850,138.359 155.719 C 138.440 155.588,138.673 155.544,138.876 155.622 C 139.079 155.700,139.434 155.611,139.664 155.424 C 140.011 155.143,140.049 155.142,139.881 155.421 C 139.713 155.699,139.779 155.704,140.255 155.449 C 140.573 155.279,141.120 155.104,141.471 155.060 C 143.517 154.804,144.729 154.474,144.729 154.173 C 144.729 154.044,144.869 153.964,145.041 153.994 C 145.574 154.088,147.473 153.457,147.473 153.186 C 147.473 153.042,147.695 153.000,147.979 153.090 C 148.306 153.194,148.460 153.146,148.416 152.954 C 148.378 152.791,148.628 152.610,148.971 152.553 C 149.314 152.496,149.632 152.340,149.678 152.206 C 149.724 152.072,149.865 152.025,149.990 152.103 C 150.116 152.181,150.218 152.069,150.218 151.855 C 150.218 151.503,150.513 151.353,151.036 151.439 C 151.143 151.456,151.299 151.292,151.383 151.073 C 151.506 150.753,151.577 150.741,151.746 151.008 C 151.908 151.263,151.958 151.239,151.961 150.905 C 151.963 150.664,152.084 150.468,152.229 150.468 C 152.375 150.468,152.414 150.608,152.317 150.780 C 152.220 150.951,152.377 150.867,152.665 150.593 C 153.630 149.673,154.075 149.345,154.268 149.407 C 154.374 149.442,154.460 149.313,154.460 149.122 C 154.460 148.932,154.746 148.704,155.094 148.616 C 155.443 148.529,155.666 148.356,155.589 148.232 C 155.513 148.108,155.676 147.849,155.952 147.655 C 156.228 147.462,156.398 147.230,156.330 147.139 C 156.263 147.049,156.278 147.027,156.365 147.090 C 156.635 147.289,157.455 146.726,157.455 146.342 C 157.455 146.141,157.586 145.976,157.746 145.976 C 157.906 145.976,157.969 145.908,157.886 145.825 C 157.803 145.742,158.010 145.420,158.345 145.109 C 158.681 144.798,159.078 144.192,159.228 143.763 C 159.377 143.334,159.601 143.045,159.725 143.122 C 159.946 143.258,160.049 142.911,159.969 142.296 C 159.946 142.124,160.033 141.984,160.162 141.984 C 160.290 141.984,160.467 141.698,160.554 141.350 C 160.642 141.001,160.823 140.783,160.956 140.866 C 161.095 140.952,161.162 140.769,161.111 140.439 C 161.062 140.116,161.198 139.730,161.422 139.559 C 161.710 139.340,161.729 139.253,161.492 139.247 C 161.244 139.241,161.259 139.142,161.554 138.847 C 161.770 138.631,161.946 138.238,161.946 137.973 C 161.946 137.709,162.049 137.492,162.174 137.492 C 162.382 137.492,162.848 135.613,162.745 135.193 C 162.721 135.095,162.816 134.711,162.957 134.340 C 163.149 133.834,163.133 133.615,162.892 133.462 C 162.634 133.298,162.637 133.257,162.909 133.254 C 163.110 133.252,163.188 133.095,163.100 132.866 C 163.016 132.648,163.112 132.421,163.323 132.341 C 163.527 132.263,163.693 132.092,163.693 131.961 C 163.693 131.830,163.604 131.779,163.495 131.846 C 163.387 131.913,163.279 131.724,163.257 131.427 C 163.224 130.996,163.265 130.961,163.455 131.257 C 163.621 131.514,163.683 131.167,163.658 130.131 C 163.638 129.308,163.685 127.455,163.762 126.014 C 163.838 124.573,163.915 117.218,163.932 109.669 C 163.950 102.121,164.057 94.261,164.171 92.202 C 164.293 89.978,164.285 88.342,164.149 88.171 C 164.010 87.995,164.019 87.850,164.174 87.797 C 164.312 87.750,164.453 87.009,164.486 86.151 C 164.519 85.293,164.609 84.591,164.686 84.591 C 164.762 84.591,164.806 84.198,164.783 83.717 C 164.761 83.236,164.843 82.780,164.966 82.704 C 165.089 82.628,165.190 82.397,165.190 82.191 C 165.190 81.958,165.073 81.888,164.878 82.004 C 164.656 82.138,164.662 82.074,164.900 81.781 C 165.083 81.554,165.158 81.247,165.066 81.098 C 164.973 80.949,165.006 80.691,165.139 80.526 C 165.271 80.360,165.435 79.537,165.503 78.697 L 165.627 77.170 160.480 77.279 C 157.650 77.340,154.688 77.286,153.899 77.160 C 153.110 77.034,152.464 77.027,152.464 77.143 C 152.464 77.260,152.183 77.355,151.840 77.355 C 151.497 77.355,151.216 77.220,151.216 77.056 C 151.216 76.863,151.131 76.842,150.975 76.997 C 150.678 77.295,150.934 78.403,151.255 78.205 C 151.390 78.121,151.415 78.345,151.315 78.744 C 151.195 79.222,151.228 79.374,151.427 79.251 C 151.609 79.138,151.657 79.214,151.561 79.463 C 151.479 79.676,151.530 79.850,151.673 79.850 C 151.817 79.850,151.939 80.047,151.946 80.287 C 151.979 81.539,152.236 82.704,152.519 82.884 C 152.773 83.045,152.774 83.087,152.524 83.090 C 152.206 83.094,152.351 85.057,152.689 85.340 C 152.771 85.409,152.831 85.689,152.823 85.964 C 152.814 86.238,152.912 86.603,153.041 86.775 C 153.193 86.979,153.174 87.087,152.985 87.087 C 152.793 87.087,152.769 87.234,152.913 87.523 C 153.467 88.637,153.578 126.766,153.028 126.949 C 152.806 127.023,152.788 127.184,152.966 127.516 C 153.136 127.835,153.128 128.033,152.937 128.151 C 152.744 128.270,152.762 128.388,152.999 128.540 C 153.214 128.679,153.246 128.827,153.088 128.946 C 152.951 129.049,152.842 129.357,152.847 129.632 C 152.852 129.906,152.747 130.207,152.614 130.299 C 152.463 130.404,152.488 130.607,152.679 130.838 C 152.903 131.107,152.911 131.257,152.709 131.382 C 152.556 131.476,152.485 131.697,152.552 131.873 C 152.620 132.048,152.566 132.300,152.433 132.433 C 152.300 132.566,152.166 133.071,152.135 133.555 C 152.104 134.039,151.927 134.617,151.742 134.841 C 151.556 135.064,151.489 135.246,151.591 135.246 C 151.693 135.246,151.637 135.415,151.466 135.621 C 151.295 135.827,151.239 135.995,151.341 135.995 C 151.443 135.995,151.396 136.153,151.237 136.345 C 151.014 136.614,151.021 136.725,151.268 136.824 C 151.485 136.911,151.456 136.960,151.182 136.973 C 150.919 136.986,150.715 137.303,150.610 137.863 C 150.520 138.343,150.312 138.706,150.145 138.674 C 149.980 138.642,149.873 138.759,149.909 138.934 C 149.944 139.109,149.804 139.318,149.597 139.397 C 149.390 139.477,149.220 139.761,149.220 140.029 C 149.220 140.297,149.111 140.448,148.977 140.365 C 148.843 140.283,148.141 140.777,147.417 141.464 C 145.591 143.198,145.228 143.506,145.228 143.318 C 145.228 143.228,145.018 143.343,144.763 143.575 C 144.507 143.806,144.045 144.044,143.736 144.104 C 143.427 144.163,143.023 144.412,142.837 144.657 C 142.651 144.902,142.495 144.973,142.491 144.814 C 142.486 144.650,142.269 144.582,141.987 144.656 C 141.714 144.727,141.543 144.871,141.608 144.975 C 141.757 145.217,138.763 146.001,137.674 146.005 C 137.431 146.006,137.297 146.112,137.377 146.241 C 137.456 146.370,137.403 146.475,137.257 146.475 C 137.112 146.475,136.991 146.335,136.989 146.163 C 136.987 145.956,136.906 145.977,136.749 146.226 C 136.406 146.768,127.340 146.753,126.997 146.210 C 126.823 145.935,126.769 145.928,126.766 146.181 C 126.763 146.429,126.664 146.413,126.370 146.119 C 126.155 145.903,125.846 145.728,125.684 145.731 C 125.512 145.733,125.545 145.834,125.764 145.976 C 125.970 146.109,126.026 146.216,125.889 146.214 C 125.752 146.212,125.421 146.045,125.153 145.842 C 124.886 145.640,124.465 145.539,124.218 145.618 C 123.970 145.696,123.768 145.650,123.768 145.516 C 123.768 145.382,123.576 145.300,123.340 145.335 C 123.105 145.369,122.688 145.188,122.413 144.932 C 122.139 144.676,121.773 144.521,121.601 144.587 C 121.429 144.653,121.217 144.592,121.131 144.451 C 121.044 144.311,120.821 144.254,120.636 144.325 C 120.448 144.397,120.234 144.245,120.150 143.980 C 120.051 143.670,119.861 143.560,119.597 143.661 C 119.331 143.763,119.255 143.717,119.373 143.526 C 119.486 143.343,119.199 143.097,118.590 142.853 C 118.052 142.638,117.437 142.143,117.193 141.731 C 116.953 141.325,116.679 141.018,116.582 141.048 C 116.259 141.148,115.068 139.770,115.370 139.646 C 115.529 139.581,115.475 139.519,115.252 139.508 C 115.029 139.497,114.692 139.298,114.503 139.066 C 114.209 138.703,114.213 138.671,114.535 138.835 C 114.868 139.005,114.868 138.990,114.535 138.696 C 114.329 138.514,114.140 138.056,114.114 137.677 C 114.065 136.967,113.680 136.433,113.034 136.180 C 112.830 136.100,112.792 136.026,112.949 136.015 C 113.331 135.988,112.946 134.252,112.495 133.966 C 112.245 133.808,112.241 133.756,112.477 133.753 C 112.648 133.751,112.789 133.630,112.789 133.485 C 112.789 133.340,112.676 133.290,112.539 133.375 C 112.402 133.460,112.280 133.438,112.268 133.327 C 112.256 133.216,112.208 132.789,112.161 132.377 C 111.745 128.732,111.675 126.145,111.713 115.908 C 111.737 109.457,111.829 99.929,111.916 94.734 C 112.047 86.943,112.017 85.323,111.746 85.487 C 111.477 85.649,111.474 85.613,111.733 85.294 C 111.908 85.078,112.114 83.906,112.192 82.689 C 112.270 81.472,112.422 80.419,112.530 80.350 C 112.637 80.281,112.694 79.775,112.656 79.226 C 112.618 78.677,112.655 78.118,112.738 77.983 C 113.191 77.251,112.933 76.971,111.807 76.972 C 111.180 76.973,110.592 77.080,110.499 77.210 C 110.399 77.352,110.153 77.303,109.890 77.089 C 109.549 76.812,109.495 76.808,109.653 77.070 C 109.853 77.402,109.537 77.363,108.318 76.904 C 108.083 76.815,108.030 76.875,108.160 77.085 C 108.314 77.335,107.037 77.383,101.900 77.323 C 98.350 77.281,95.307 77.333,95.137 77.438 C 94.926 77.570,94.875 77.508,94.977 77.243 C 95.155 76.779,95.030 76.748,94.623 77.155 M243.668 77.105 C 243.753 77.243,243.703 77.355,243.558 77.355 C 243.413 77.355,243.294 77.618,243.294 77.940 C 243.294 78.262,243.068 78.729,242.793 78.978 C 242.518 79.228,242.311 79.554,242.333 79.703 C 242.381 80.018,242.114 80.807,241.777 81.347 C 241.538 81.732,241.480 81.859,241.159 82.720 C 240.669 84.034,240.683 84.048,242.737 84.141 C 243.798 84.190,244.807 84.129,244.978 84.006 C 245.161 83.874,245.290 83.874,245.290 84.005 C 245.290 84.128,245.680 84.438,246.156 84.695 C 246.633 84.951,246.969 85.248,246.903 85.354 C 246.838 85.460,246.900 85.586,247.042 85.633 C 247.397 85.751,248.022 88.223,247.886 88.972 C 247.817 89.356,247.893 89.583,248.092 89.586 C 248.310 89.588,248.292 89.665,248.035 89.832 C 247.773 90.001,247.757 90.075,247.980 90.077 C 248.320 90.081,248.231 140.241,247.890 141.602 C 247.779 142.045,247.833 142.234,248.070 142.237 C 248.284 142.240,248.313 142.309,248.150 142.424 C 248.007 142.525,247.873 143.001,247.850 143.481 C 247.707 146.575,247.296 150.266,247.059 150.593 C 246.959 150.730,246.899 151.262,246.927 151.774 C 246.955 152.287,246.878 152.645,246.757 152.570 C 246.637 152.496,246.538 152.547,246.538 152.684 C 246.538 152.821,246.662 153.011,246.814 153.104 C 247.007 153.223,246.988 153.341,246.752 153.493 C 246.467 153.677,246.467 153.747,246.753 153.931 C 247.040 154.116,247.040 154.172,246.753 154.286 C 246.507 154.384,246.528 154.426,246.829 154.441 C 247.058 154.452,247.285 154.341,247.333 154.195 C 247.395 154.008,247.627 154.008,248.117 154.195 C 248.557 154.362,248.756 154.368,248.658 154.210 C 248.491 153.940,248.339 153.946,255.768 153.947 C 258.591 153.947,260.665 154.046,260.710 154.182 C 260.757 154.323,261.084 154.333,261.523 154.207 C 261.961 154.081,262.258 154.090,262.258 154.228 C 262.258 154.545,262.939 154.523,263.138 154.200 C 263.227 154.057,263.164 153.776,262.998 153.576 C 262.795 153.332,262.785 153.213,262.968 153.213 C 263.118 153.213,263.176 153.045,263.098 152.840 C 263.019 152.635,262.847 152.534,262.714 152.615 C 262.582 152.697,262.500 152.612,262.532 152.427 C 262.563 152.241,262.499 151.765,262.388 151.369 C 262.277 150.973,262.161 150.411,262.130 150.121 C 262.098 149.832,262.050 149.595,262.021 149.595 C 261.887 149.595,261.735 148.494,261.746 147.613 C 261.753 147.072,261.658 146.567,261.533 146.490 C 260.962 146.137,260.486 94.286,260.988 87.092 L 261.135 84.977 262.009 84.913 C 262.489 84.878,263.163 84.777,263.506 84.688 C 264.537 84.422,270.852 84.546,270.948 84.835 C 270.996 84.977,271.142 85.027,271.274 84.946 C 271.405 84.864,271.698 84.948,271.924 85.131 C 272.268 85.410,272.302 85.410,272.132 85.127 C 272.008 84.920,272.204 84.969,272.636 85.252 C 273.099 85.555,273.269 85.593,273.127 85.364 C 272.881 84.964,273.317 85.163,274.033 85.777 C 274.264 85.975,274.573 86.064,274.719 85.974 C 274.865 85.883,274.984 85.981,274.984 86.191 C 274.984 86.427,275.127 86.517,275.359 86.428 C 275.565 86.349,275.733 86.401,275.733 86.544 C 275.733 86.687,275.958 86.875,276.232 86.962 C 276.507 87.049,276.731 87.269,276.731 87.451 C 276.731 87.744,277.397 88.168,277.729 88.086 C 277.798 88.069,277.920 88.315,278.001 88.632 C 278.082 88.948,278.278 89.180,278.438 89.145 C 278.597 89.111,278.709 89.167,278.687 89.270 C 278.611 89.626,279.215 90.830,279.470 90.830 C 279.610 90.830,279.701 90.914,279.671 91.017 C 279.641 91.120,279.768 91.597,279.953 92.077 C 280.138 92.558,280.266 93.260,280.238 93.637 C 280.210 94.014,280.287 94.323,280.408 94.323 C 280.683 94.323,280.538 97.961,280.189 99.813 C 280.046 100.568,279.921 101.326,279.911 101.497 C 279.900 101.669,279.798 101.809,279.684 101.809 C 279.570 101.809,279.476 101.941,279.476 102.102 C 279.476 102.720,278.585 104.292,278.228 104.302 C 277.923 104.310,277.917 104.352,278.192 104.526 C 278.452 104.691,278.314 104.937,277.602 105.583 C 277.091 106.046,276.353 106.734,275.962 107.112 C 275.571 107.489,275.104 107.798,274.924 107.798 C 274.744 107.798,274.363 107.961,274.077 108.161 C 273.792 108.361,272.741 108.752,271.742 109.028 C 270.743 109.305,269.647 109.715,269.305 109.938 C 268.929 110.185,268.762 110.220,268.881 110.027 C 269.016 109.808,268.961 109.754,268.702 109.853 C 268.496 109.933,268.172 109.902,267.983 109.785 C 267.791 109.667,267.520 109.672,267.369 109.798 C 267.220 109.922,266.093 110.056,264.865 110.096 C 262.667 110.167,262.632 110.178,262.620 110.799 C 262.612 111.145,262.511 111.584,262.394 111.773 C 262.250 112.006,262.274 112.060,262.469 111.939 C 262.628 111.841,262.757 111.880,262.757 112.025 C 262.757 112.171,262.637 112.289,262.491 112.289 C 262.338 112.289,262.292 112.502,262.383 112.789 C 262.479 113.090,262.428 113.288,262.254 113.288 C 262.096 113.288,262.014 113.427,262.070 113.597 C 262.127 113.767,262.026 114.398,261.845 114.998 C 261.664 115.599,261.571 116.180,261.639 116.290 C 261.707 116.399,261.621 116.540,261.449 116.603 C 260.604 116.910,261.691 117.654,262.969 117.644 C 263.699 117.638,264.110 117.720,263.935 117.836 C 263.763 117.950,264.153 118.015,264.834 117.986 C 265.656 117.950,266.110 118.048,266.265 118.293 C 266.390 118.491,266.494 118.560,266.496 118.448 C 266.499 118.335,266.678 118.420,266.895 118.637 C 267.112 118.854,267.391 118.968,267.516 118.891 C 267.640 118.814,267.668 118.944,267.578 119.180 C 267.466 119.470,267.507 119.550,267.706 119.427 C 267.866 119.328,267.998 119.372,267.998 119.526 C 267.998 119.679,268.110 119.735,268.247 119.651 C 268.384 119.566,268.497 119.643,268.498 119.823 C 268.498 120.003,268.813 120.487,269.198 120.898 C 269.582 121.310,269.974 121.851,270.068 122.099 C 270.167 122.361,270.362 122.476,270.530 122.373 C 270.697 122.269,270.753 122.302,270.661 122.450 C 270.574 122.591,270.829 123.047,271.227 123.464 C 271.626 123.881,271.885 124.288,271.804 124.369 C 271.724 124.450,271.807 124.517,271.990 124.517 C 272.173 124.517,272.250 124.589,272.162 124.677 C 272.074 124.766,272.343 125.227,272.761 125.703 C 273.179 126.179,273.625 126.843,273.753 127.179 C 273.894 127.549,274.099 127.720,274.274 127.612 C 274.453 127.502,274.495 127.543,274.384 127.722 C 274.286 127.880,274.332 128.010,274.485 128.010 C 274.639 128.010,274.703 128.110,274.628 128.231 C 274.552 128.353,274.658 128.591,274.862 128.761 C 275.067 128.930,275.234 129.172,275.234 129.297 C 275.234 129.422,275.551 129.834,275.938 130.212 C 276.325 130.590,276.590 131.064,276.527 131.264 C 276.465 131.464,276.501 131.546,276.609 131.446 C 276.857 131.214,277.767 132.239,277.581 132.540 C 277.505 132.663,277.591 132.733,277.773 132.695 C 277.955 132.657,278.119 132.795,278.137 133.001 C 278.156 133.206,278.184 133.522,278.200 133.702 C 278.215 133.881,278.329 133.966,278.452 133.890 C 278.648 133.769,278.902 134.141,278.995 134.688 C 279.100 135.305,279.526 135.711,279.916 135.565 C 280.282 135.428,280.300 135.463,280.034 135.790 C 279.713 136.187,280.192 136.943,280.543 136.592 C 280.624 136.511,280.632 136.668,280.560 136.940 C 280.489 137.213,280.570 137.522,280.740 137.627 C 280.953 137.759,280.993 137.709,280.868 137.468 C 280.768 137.276,280.868 137.342,281.090 137.617 C 281.312 137.891,281.557 138.369,281.635 138.677 C 281.712 138.986,281.883 139.239,282.013 139.239 C 282.144 139.239,282.181 139.351,282.096 139.488 C 282.011 139.626,282.066 139.738,282.219 139.738 C 282.371 139.738,282.660 140.131,282.861 140.611 C 283.061 141.092,283.346 141.485,283.493 141.485 C 283.639 141.485,283.716 141.615,283.663 141.774 C 283.610 141.934,283.829 142.347,284.150 142.694 C 284.471 143.040,284.678 143.471,284.608 143.651 C 284.539 143.832,284.765 144.164,285.111 144.391 C 285.457 144.617,285.682 144.951,285.613 145.133 C 285.543 145.315,285.688 145.607,285.935 145.782 C 286.486 146.173,287.001 147.101,286.787 147.316 C 286.700 147.403,286.767 147.473,286.935 147.473 C 287.103 147.473,287.184 147.565,287.115 147.677 C 287.046 147.789,287.314 148.371,287.711 148.971 C 288.107 149.570,288.375 150.152,288.306 150.264 C 288.237 150.376,288.355 150.468,288.569 150.468 C 288.783 150.468,288.940 150.552,288.917 150.655 C 288.811 151.139,289.315 152.254,289.742 152.483 C 290.005 152.624,290.150 152.851,290.065 152.989 C 289.980 153.127,290.153 153.449,290.449 153.706 C 290.745 153.963,290.971 154.241,290.952 154.323 C 290.830 154.844,291.232 154.927,292.951 154.737 C 293.980 154.624,295.131 154.549,295.508 154.572 C 295.886 154.595,296.195 154.523,296.195 154.412 C 296.195 154.302,296.728 154.228,297.380 154.248 L 298.565 154.286 297.442 154.470 C 296.825 154.571,297.442 154.583,298.815 154.495 C 300.187 154.407,302.910 154.340,304.866 154.345 C 308.726 154.356,308.562 154.422,308.443 152.901 C 308.414 152.523,308.491 152.215,308.614 152.215 C 309.091 152.215,308.807 151.410,308.255 151.201 C 307.935 151.079,307.673 150.864,307.673 150.724 C 307.673 150.583,307.517 150.468,307.326 150.468 C 307.134 150.468,306.913 150.299,306.834 150.094 C 306.755 149.888,306.519 149.719,306.309 149.719 C 306.098 149.719,305.926 149.624,305.926 149.508 C 305.926 149.176,305.101 148.330,304.593 148.141 C 304.339 148.047,304.076 147.756,304.008 147.493 C 303.939 147.231,303.641 146.955,303.345 146.881 C 303.049 146.806,302.659 146.406,302.477 145.992 C 302.296 145.578,302.071 145.262,301.978 145.290 C 301.670 145.381,300.437 144.055,300.437 143.632 C 300.437 143.403,300.268 143.151,300.062 143.072 C 299.857 142.993,299.688 142.760,299.688 142.554 C 299.688 142.349,299.407 141.960,299.064 141.690 C 298.721 141.420,298.440 141.020,298.440 140.801 C 298.440 140.582,298.368 140.475,298.280 140.564 C 298.192 140.652,297.626 139.986,297.022 139.085 C 296.417 138.185,295.675 137.182,295.373 136.858 C 294.434 135.853,294.224 135.554,294.360 135.418 C 294.432 135.346,294.253 135.160,293.963 135.005 C 293.673 134.849,293.501 134.616,293.582 134.486 C 293.662 134.357,293.424 133.969,293.053 133.626 C 292.682 133.282,292.472 133.001,292.587 133.001 C 292.701 133.001,292.473 132.665,292.080 132.255 C 291.687 131.844,291.440 131.433,291.533 131.341 C 291.625 131.249,291.476 131.017,291.202 130.825 C 290.929 130.634,290.703 130.231,290.701 129.930 C 290.698 129.511,290.645 129.465,290.474 129.735 C 290.303 130.006,290.230 129.948,290.160 129.485 C 290.110 129.154,289.926 128.913,289.751 128.950 C 289.577 128.986,289.457 128.874,289.485 128.700 C 289.560 128.237,289.182 127.468,288.598 126.893 C 288.316 126.615,288.054 126.240,288.017 126.060 C 287.980 125.879,287.727 125.493,287.456 125.202 C 287.184 124.910,286.962 124.588,286.962 124.485 C 286.962 124.382,286.625 123.929,286.213 123.478 C 285.802 123.027,285.465 122.515,285.465 122.340 C 285.465 122.165,285.350 122.021,285.209 122.021 C 285.068 122.021,284.846 121.738,284.714 121.391 C 284.582 121.044,284.311 120.698,284.112 120.622 C 283.913 120.545,283.810 120.325,283.884 120.131 C 283.959 119.938,283.839 119.711,283.619 119.626 C 283.399 119.542,283.219 119.344,283.218 119.187 C 283.218 119.030,282.881 118.509,282.470 118.029 C 282.059 117.548,281.723 117.027,281.722 116.870 C 281.722 116.713,281.552 116.520,281.345 116.440 C 281.138 116.361,280.998 116.152,281.033 115.977 C 281.069 115.802,280.955 115.687,280.780 115.722 C 280.602 115.758,280.396 115.456,280.312 115.036 C 280.230 114.623,280.008 114.286,279.819 114.286 C 279.630 114.286,279.476 114.167,279.476 114.021 C 279.476 113.876,279.588 113.827,279.726 113.911 C 279.863 113.996,279.977 113.919,279.979 113.739 C 279.982 113.559,280.591 113.149,281.334 112.828 C 282.076 112.507,282.878 112.029,283.115 111.767 C 283.352 111.506,283.691 111.291,283.867 111.291 C 284.044 111.291,284.337 111.095,284.519 110.855 C 284.847 110.421,285.498 109.946,286.213 109.620 C 286.419 109.527,287.066 108.960,287.651 108.362 C 288.315 107.683,288.831 107.343,289.024 107.459 C 289.261 107.601,289.266 107.561,289.046 107.284 C 288.826 107.009,288.841 106.849,289.108 106.603 C 289.300 106.426,289.457 106.370,289.458 106.478 C 289.458 106.859,290.721 105.201,290.864 104.632 C 290.943 104.314,291.161 104.055,291.348 104.055 C 291.547 104.055,291.628 103.900,291.544 103.681 C 291.464 103.474,291.537 103.306,291.705 103.306 C 291.895 103.306,291.966 103.074,291.894 102.695 C 291.822 102.320,291.908 102.033,292.117 101.953 C 292.303 101.882,292.437 101.736,292.414 101.629 C 292.367 101.412,292.625 100.650,292.957 100.023 C 293.681 98.656,293.860 91.000,293.186 90.189 C 293.063 90.040,292.892 89.479,292.806 88.941 C 292.721 88.403,292.471 87.626,292.251 87.213 C 292.030 86.800,291.873 86.379,291.901 86.276 C 291.930 86.173,291.840 86.089,291.703 86.089 C 291.566 86.089,291.454 85.966,291.454 85.815 C 291.454 85.665,291.201 85.188,290.893 84.755 C 290.585 84.322,290.361 83.939,290.396 83.904 C 290.540 83.759,289.813 82.845,289.553 82.845 C 289.106 82.845,288.558 82.100,288.990 82.080 C 289.178 82.072,289.080 81.963,288.771 81.839 C 288.462 81.715,288.210 81.422,288.210 81.189 C 288.210 80.956,288.138 80.837,288.050 80.925 C 287.904 81.071,286.909 80.387,285.943 79.475 C 285.726 79.270,285.445 79.103,285.319 79.106 C 285.193 79.108,285.259 79.218,285.465 79.351 C 285.694 79.499,285.723 79.595,285.540 79.597 C 285.375 79.599,285.140 79.422,285.018 79.204 C 284.896 78.986,284.722 78.817,284.631 78.830 C 284.541 78.842,284.410 78.838,284.342 78.821 C 284.273 78.804,284.105 78.762,283.968 78.727 C 283.830 78.693,283.599 78.651,283.454 78.634 C 283.308 78.617,283.266 78.478,283.360 78.326 C 283.477 78.138,283.352 78.107,282.970 78.228 C 282.619 78.339,282.337 78.291,282.218 78.099 C 282.028 77.791,281.830 77.749,279.171 77.447 C 278.385 77.358,277.802 77.189,277.875 77.071 C 277.948 76.954,277.701 76.974,277.328 77.116 C 276.954 77.258,276.582 77.286,276.502 77.177 C 276.317 76.926,261.759 76.917,261.759 77.168 C 261.759 77.430,259.823 77.403,259.721 77.139 C 259.676 77.020,259.021 77.012,258.266 77.121 C 256.503 77.375,247.469 77.415,247.622 77.168 C 247.686 77.065,246.907 77.037,245.890 77.105 C 244.874 77.174,244.042 77.146,244.042 77.043 C 244.042 76.940,243.924 76.856,243.778 76.856 C 243.633 76.856,243.583 76.968,243.668 77.105 M293.382 95.253 C 293.328 95.771,293.283 95.409,293.282 94.448 C 293.281 93.487,293.325 93.064,293.380 93.507 C 293.435 93.950,293.436 94.736,293.382 95.253 M183.157 165.460 C 181.441 165.559,179.380 165.579,178.577 165.505 C 177.486 165.404,177.060 165.457,176.896 165.717 C 176.746 165.953,176.675 165.967,176.673 165.760 C 176.670 165.592,176.528 165.506,176.357 165.567 C 176.185 165.629,175.034 165.746,173.799 165.827 C 172.564 165.908,170.992 166.022,170.306 166.079 C 169.619 166.137,167.711 166.239,166.064 166.306 C 160.553 166.532,157.346 166.686,155.334 166.821 C 154.236 166.895,152.636 166.963,151.778 166.971 C 150.920 166.980,150.218 167.074,150.218 167.181 C 150.218 167.371,148.230 167.554,143.356 167.812 C 141.984 167.885,140.299 168.003,139.613 168.074 C 138.927 168.145,137.939 168.202,137.418 168.199 C 136.897 168.196,136.521 168.276,136.583 168.377 C 136.645 168.477,136.454 168.566,136.158 168.575 C 134.942 168.610,130.209 169.001,127.012 169.330 C 126.394 169.394,125.354 169.450,124.699 169.456 C 123.906 169.462,123.566 169.556,123.678 169.738 C 123.795 169.927,123.497 169.962,122.695 169.852 C 122.062 169.765,121.487 169.787,121.417 169.900 C 121.347 170.013,120.321 170.180,119.138 170.271 C 117.954 170.362,116.778 170.548,116.524 170.684 C 116.217 170.849,116.010 170.846,115.906 170.677 C 115.819 170.537,115.656 170.480,115.542 170.550 C 115.429 170.620,114.567 170.738,113.626 170.813 C 111.330 170.996,110.736 171.072,110.293 171.242 C 110.087 171.322,109.201 171.452,108.322 171.532 C 107.444 171.613,106.574 171.804,106.389 171.958 C 106.139 172.165,106.051 172.165,106.051 171.958 C 106.051 171.804,105.855 171.680,105.614 171.682 C 105.238 171.685,105.230 171.722,105.552 171.947 C 105.824 172.137,105.572 172.170,104.631 172.068 C 103.918 171.991,103.274 172.028,103.198 172.150 C 103.123 172.272,102.639 172.323,102.123 172.262 C 101.422 172.180,101.280 172.217,101.560 172.412 C 101.862 172.622,101.815 172.670,101.310 172.663 C 100.967 172.658,100.012 172.723,99.189 172.808 C 98.366 172.892,97.379 172.958,96.997 172.953 C 96.614 172.948,96.358 173.036,96.428 173.149 C 96.497 173.261,96.277 173.300,95.938 173.235 C 95.580 173.167,95.321 173.234,95.321 173.396 C 95.321 173.549,95.202 173.674,95.057 173.674 C 94.912 173.674,94.877 173.534,94.980 173.362 C 95.114 173.139,95.051 173.145,94.757 173.383 C 94.513 173.581,94.128 173.646,93.805 173.544 C 93.507 173.449,93.193 173.480,93.107 173.614 C 93.021 173.747,92.109 173.928,91.079 174.016 C 90.050 174.105,88.927 174.241,88.584 174.320 C 88.241 174.399,87.623 174.483,87.211 174.506 C 86.800 174.529,86.328 174.635,86.162 174.743 C 85.997 174.850,85.559 174.861,85.189 174.768 C 84.731 174.654,84.571 174.687,84.686 174.873 C 84.792 175.045,84.669 175.110,84.354 175.049 C 84.079 174.996,83.788 175.058,83.708 175.188 C 83.620 175.331,83.362 175.315,83.049 175.147 C 82.676 174.948,82.582 174.948,82.705 175.147 C 82.811 175.320,82.615 175.430,82.173 175.446 C 81.788 175.459,81.135 175.515,80.724 175.569 C 80.312 175.623,79.722 175.682,79.414 175.700 C 79.105 175.718,78.852 175.812,78.852 175.908 C 78.852 176.004,78.487 176.039,78.041 175.984 C 77.386 175.904,77.302 175.941,77.604 176.176 C 77.927 176.426,77.919 176.447,77.550 176.329 C 77.315 176.253,76.440 176.312,75.607 176.459 L 74.092 176.725 74.164 178.756 L 74.236 180.786 75.983 180.728 C 76.943 180.696,78.291 180.615,78.977 180.548 C 79.663 180.482,81.347 180.315,82.720 180.178 C 84.092 180.042,86.170 179.869,87.336 179.793 C 88.503 179.718,90.299 179.597,91.329 179.524 C 92.358 179.451,93.958 179.373,94.885 179.350 C 95.811 179.327,96.569 179.238,96.569 179.152 C 96.569 179.066,97.551 179.018,98.752 179.045 C 99.953 179.073,101.055 179.002,101.201 178.889 C 101.347 178.775,103.480 178.612,105.942 178.527 C 108.404 178.442,110.908 178.267,111.508 178.137 C 112.107 178.007,112.823 177.973,113.098 178.060 C 113.431 178.166,113.542 178.127,113.429 177.943 C 113.326 177.776,113.456 177.667,113.757 177.667 C 114.032 177.667,114.331 177.787,114.422 177.935 C 114.526 178.103,114.974 178.139,115.622 178.032 C 117.823 177.669,120.989 177.443,124.574 177.393 C 126.047 177.372,127.209 177.285,127.157 177.199 C 127.104 177.113,128.145 177.029,129.470 177.012 C 134.718 176.945,135.273 176.913,135.132 176.685 C 135.046 176.546,135.268 176.523,135.678 176.628 C 136.058 176.726,137.548 176.772,138.989 176.732 C 140.430 176.692,142.929 176.640,144.541 176.618 C 146.154 176.595,147.473 176.500,147.473 176.405 C 147.473 176.216,155.559 175.884,161.697 175.819 C 163.824 175.797,165.621 175.751,165.689 175.717 C 165.887 175.620,192.764 175.296,200.624 175.296 C 205.076 175.296,207.804 175.203,207.919 175.047 C 208.032 174.893,208.104 174.917,208.106 175.112 C 208.109 175.356,209.461 175.423,214.187 175.412 C 217.529 175.404,222.039 175.477,224.207 175.574 C 226.601 175.680,228.095 175.659,228.008 175.519 C 227.922 175.380,228.912 175.366,230.527 175.485 C 231.990 175.592,236.276 175.726,240.050 175.781 C 249.376 175.917,257.563 176.178,258.016 176.353 C 258.222 176.432,259.850 176.520,261.634 176.547 C 263.419 176.575,265.271 176.674,265.752 176.768 C 266.232 176.862,267.156 176.837,267.804 176.712 C 268.453 176.588,268.939 176.558,268.885 176.646 C 268.831 176.734,269.255 176.808,269.827 176.811 C 270.399 176.814,272.327 176.901,274.111 177.005 C 275.895 177.109,278.681 177.242,280.303 177.301 C 281.924 177.360,283.945 177.476,284.794 177.559 C 285.643 177.642,286.811 177.733,287.389 177.762 C 287.967 177.791,288.518 177.893,288.614 177.988 C 288.709 178.084,288.938 178.037,289.122 177.884 C 289.369 177.679,289.457 177.680,289.457 177.886 C 289.457 178.263,290.279 178.242,290.665 177.856 C 290.875 177.647,291.033 177.631,291.152 177.807 C 291.249 177.950,291.908 178.062,292.615 178.054 C 293.322 178.047,293.849 178.125,293.785 178.228 C 293.722 178.331,293.957 178.415,294.308 178.415 C 294.660 178.415,294.949 178.275,294.951 178.104 C 294.954 177.864,294.999 177.861,295.146 178.092 C 295.251 178.257,295.558 178.385,295.828 178.376 C 297.292 178.326,302.343 178.752,302.545 178.942 C 302.676 179.064,303.012 179.153,303.294 179.139 C 303.739 179.118,303.724 179.086,303.182 178.894 C 302.621 178.697,302.633 178.688,303.306 178.810 C 303.718 178.884,304.729 178.983,305.552 179.028 C 306.376 179.074,307.367 179.183,307.755 179.271 C 308.292 179.392,308.415 179.354,308.269 179.110 C 308.121 178.864,308.160 178.854,308.436 179.068 C 308.634 179.221,308.964 179.347,309.170 179.348 C 309.376 179.350,309.841 179.430,310.204 179.527 C 310.596 179.632,310.930 179.594,311.030 179.433 C 311.140 179.254,311.347 179.243,311.639 179.399 C 311.882 179.530,313.083 179.702,314.306 179.783 C 315.530 179.863,317.428 179.989,318.524 180.063 C 319.620 180.137,320.581 180.302,320.660 180.430 C 320.739 180.557,321.358 180.650,322.036 180.636 C 322.714 180.622,323.550 180.688,323.893 180.782 C 324.401 180.922,324.447 180.900,324.142 180.659 C 323.824 180.409,323.837 180.387,324.228 180.514 C 325.847 181.040,325.764 181.131,325.764 178.823 C 325.764 177.662,325.717 176.759,325.659 176.816 C 325.602 176.873,325.321 176.771,325.036 176.588 C 324.750 176.406,324.208 176.276,323.830 176.300 C 323.453 176.323,323.144 176.249,323.144 176.136 C 323.144 176.023,322.807 175.969,322.396 176.017 C 321.984 176.065,321.647 175.994,321.647 175.858 C 321.647 175.723,321.364 175.667,321.017 175.733 C 320.671 175.799,320.334 175.767,320.268 175.661 C 320.203 175.555,319.941 175.522,319.688 175.589 C 319.434 175.655,319.069 175.560,318.877 175.378 C 318.685 175.196,318.191 175.054,317.779 175.062 C 317.367 175.071,316.972 174.993,316.900 174.889 C 316.828 174.786,315.970 174.667,314.992 174.624 C 314.015 174.582,313.276 174.448,313.349 174.327 C 313.423 174.206,313.130 174.158,312.699 174.221 C 312.268 174.285,311.915 174.262,311.915 174.171 C 311.915 174.079,311.509 173.989,311.013 173.971 C 310.517 173.952,309.934 173.794,309.717 173.618 C 309.387 173.351,309.359 173.360,309.545 173.674 C 309.721 173.974,309.693 173.993,309.405 173.769 C 309.018 173.469,308.034 173.260,306.051 173.056 C 303.506 172.795,302.550 172.623,302.246 172.373 C 302.028 172.194,301.934 172.203,301.934 172.405 C 301.934 172.600,301.792 172.620,301.497 172.468 C 301.257 172.344,300.864 172.274,300.624 172.312 C 300.384 172.351,300.187 172.299,300.187 172.197 C 300.187 172.094,300.047 172.009,299.875 172.007 C 299.704 172.004,298.946 171.925,298.191 171.830 C 297.436 171.736,296.151 171.602,295.335 171.533 C 294.519 171.465,293.705 171.287,293.526 171.139 C 293.285 170.939,293.199 170.958,293.196 171.211 C 293.194 171.453,293.139 171.469,293.008 171.264 C 292.907 171.105,292.544 170.969,292.201 170.962 C 290.415 170.925,288.973 170.778,288.812 170.617 C 288.712 170.517,288.458 170.574,288.247 170.745 C 288.012 170.935,287.930 170.945,288.033 170.772 C 288.144 170.587,287.924 170.479,287.395 170.458 C 286.951 170.441,286.138 170.374,285.590 170.310 C 285.041 170.246,284.226 170.173,283.780 170.147 C 283.334 170.121,282.969 170.030,282.969 169.945 C 282.969 169.860,282.464 169.820,281.847 169.856 C 281.229 169.892,280.724 169.831,280.724 169.719 C 280.724 169.607,280.359 169.507,279.913 169.497 C 278.186 169.456,275.686 169.219,275.549 169.082 C 275.469 169.002,275.232 169.077,275.022 169.247 C 274.717 169.494,274.677 169.494,274.826 169.245 C 274.930 169.074,274.917 168.933,274.800 168.933 C 274.682 168.933,274.434 169.074,274.249 169.245 C 274.036 169.443,273.972 169.451,274.075 169.268 C 274.190 169.062,273.602 168.933,272.053 168.822 C 270.852 168.736,269.476 168.565,268.996 168.443 C 268.515 168.320,267.673 168.240,267.124 168.264 C 266.575 168.289,266.045 168.197,265.946 168.060 C 265.830 167.898,265.590 167.920,265.260 168.124 C 264.919 168.336,264.754 168.350,264.754 168.165 C 264.754 167.987,264.190 167.922,263.131 167.976 C 262.239 168.022,261.509 167.961,261.509 167.841 C 261.509 167.721,260.945 167.676,260.255 167.743 C 259.564 167.809,258.952 167.787,258.894 167.693 C 258.837 167.600,257.857 167.504,256.718 167.480 C 255.579 167.455,254.610 167.324,254.564 167.186 C 254.425 166.767,253.774 166.909,253.774 167.359 C 253.774 167.745,253.747 167.746,253.462 167.379 C 253.212 167.057,252.405 166.942,249.407 166.799 C 247.349 166.700,245.103 166.593,244.417 166.559 C 238.535 166.274,234.299 166.113,233.603 166.149 C 233.145 166.172,232.660 166.123,232.526 166.040 C 232.391 165.957,231.642 165.852,230.863 165.807 C 230.083 165.763,228.169 165.652,226.609 165.560 C 224.936 165.462,223.830 165.487,223.912 165.620 C 223.995 165.754,223.324 165.757,222.257 165.626 C 221.269 165.506,219.265 165.443,217.803 165.486 C 216.340 165.529,215.195 165.482,215.258 165.380 C 215.402 165.148,187.367 165.218,183.157 165.460 " stroke="none" fill="#64c4ec" fill-rule="evenodd"></path><path id="path1" d="M94.988 77.212 C 94.876 77.505,94.983 77.522,95.593 77.310 C 96.001 77.167,96.669 77.100,97.076 77.160 C 97.483 77.220,97.817 77.176,97.817 77.062 C 97.817 76.682,95.137 76.824,94.988 77.212 M108.610 77.003 C 108.840 77.232,110.543 77.347,110.543 77.133 C 110.543 77.013,110.082 76.908,109.518 76.901 C 108.955 76.893,108.546 76.939,108.610 77.003 M151.216 77.105 C 151.216 77.243,151.504 77.355,151.855 77.355 C 152.217 77.355,152.427 77.247,152.339 77.105 C 152.255 76.968,151.967 76.856,151.701 76.856 C 151.434 76.856,151.216 76.968,151.216 77.105 M152.734 76.946 C 152.981 77.161,154.948 77.288,154.820 77.082 C 154.743 76.958,154.219 76.856,153.655 76.856 C 153.092 76.856,152.677 76.897,152.734 76.946 M163.307 77.122 C 164.302 77.238,165.206 77.227,165.428 77.097 C 165.678 76.951,165.068 76.880,163.693 76.896 L 161.572 76.921 163.307 77.122 M199.626 77.230 C 199.457 77.433,199.203 77.527,199.060 77.438 C 198.905 77.343,198.875 77.399,198.986 77.578 C 199.102 77.767,199.278 77.794,199.461 77.650 C 199.620 77.525,199.913 77.371,200.112 77.309 C 200.350 77.235,200.381 77.139,200.203 77.029 C 200.054 76.937,199.794 77.027,199.626 77.230 M244.916 76.973 C 245.407 77.159,248.035 77.268,248.035 77.103 C 248.035 77.010,247.277 76.922,246.351 76.907 C 245.424 76.892,244.779 76.922,244.916 76.973 M257.018 77.055 C 257.018 77.165,257.439 77.213,257.954 77.162 C 259.402 77.018,259.508 76.897,258.203 76.876 C 257.551 76.865,257.018 76.946,257.018 77.055 M259.763 77.105 C 259.763 77.243,260.212 77.355,260.761 77.355 C 261.310 77.355,261.759 77.243,261.759 77.105 C 261.759 76.968,261.310 76.856,260.761 76.856 C 260.212 76.856,259.763 76.968,259.763 77.105 M262.695 77.032 C 263.004 77.091,263.509 77.091,263.818 77.032 C 264.127 76.973,263.874 76.924,263.256 76.924 C 262.639 76.924,262.386 76.973,262.695 77.032 M267.575 77.042 C 269.195 77.086,271.778 77.086,273.314 77.042 C 274.850 76.998,273.525 76.963,270.368 76.963 C 267.211 76.963,265.955 76.999,267.575 77.042 M276.482 77.056 C 276.482 77.165,276.873 77.255,277.351 77.255 C 277.868 77.255,278.096 77.176,277.913 77.059 C 277.509 76.803,276.482 76.800,276.482 77.056 M196.507 78.104 C 196.324 78.399,196.568 78.399,197.255 78.104 C 197.736 77.897,197.735 77.888,197.207 77.872 C 196.907 77.862,196.591 77.966,196.507 78.104 M282.221 78.104 C 282.221 78.241,282.389 78.353,282.595 78.353 C 282.801 78.353,282.969 78.241,282.969 78.104 C 282.969 77.966,282.801 77.854,282.595 77.854 C 282.389 77.854,282.221 77.966,282.221 78.104 M242.719 78.617 C 242.609 79.038,242.648 79.077,242.939 78.836 C 243.336 78.506,243.410 78.104,243.073 78.104 C 242.952 78.104,242.793 78.335,242.719 78.617 M192.538 79.753 C 192.425 80.048,192.490 80.114,192.781 80.003 C 193.000 79.919,193.232 79.850,193.298 79.850 C 193.363 79.850,193.347 79.738,193.263 79.601 C 193.034 79.230,192.713 79.298,192.538 79.753 M241.662 80.973 C 241.557 81.248,241.415 81.585,241.349 81.722 C 241.282 81.859,241.425 81.786,241.666 81.559 C 241.907 81.332,242.048 80.996,241.979 80.811 C 241.892 80.573,241.798 80.621,241.662 80.973 M92.016 82.473 C 91.950 82.815,91.981 83.094,92.083 83.094 C 92.350 83.094,92.567 82.120,92.332 81.974 C 92.223 81.907,92.081 82.132,92.016 82.473 M288.958 82.470 C 289.129 82.676,289.395 82.836,289.550 82.825 C 289.726 82.813,289.713 82.758,289.518 82.679 C 289.346 82.609,289.268 82.450,289.346 82.324 C 289.423 82.199,289.298 82.096,289.067 82.096 C 288.722 82.096,288.703 82.163,288.958 82.470 M185.901 83.593 C 185.585 83.868,185.447 84.092,185.596 84.092 C 185.856 84.092,186.650 83.421,186.650 83.201 C 186.650 83.003,186.479 83.092,185.901 83.593 M211.170 84.022 C 211.549 84.079,212.111 84.078,212.418 84.018 C 212.725 83.959,212.414 83.912,211.728 83.914 C 211.042 83.916,210.791 83.964,211.170 84.022 M235.572 84.092 C 235.321 84.666,235.315 85.677,235.564 85.431 C 235.721 85.275,235.800 84.882,235.738 84.558 C 235.677 84.233,235.602 84.024,235.572 84.092 M290.937 84.817 C 291.221 85.216,291.454 85.665,291.454 85.815 C 291.454 85.966,291.555 86.089,291.680 86.089 C 291.804 86.089,291.847 85.864,291.775 85.590 C 291.704 85.315,291.553 85.090,291.441 85.090 C 291.329 85.090,291.166 84.866,291.079 84.591 C 290.992 84.317,290.808 84.092,290.671 84.092 C 290.534 84.092,290.654 84.418,290.937 84.817 M164.445 84.779 C 164.457 85.326,164.933 85.689,164.937 85.153 C 164.939 84.844,164.828 84.591,164.691 84.591 C 164.554 84.591,164.443 84.676,164.445 84.779 M181.884 87.087 C 180.429 88.453,180.348 88.678,181.659 87.711 C 182.124 87.367,182.399 87.086,182.269 87.085 C 182.140 87.085,182.371 86.808,182.782 86.471 C 183.194 86.133,183.459 85.853,183.372 85.848 C 183.285 85.843,182.615 86.400,181.884 87.087 M197.304 87.351 C 197.194 87.772,197.233 87.811,197.524 87.569 C 197.921 87.240,197.995 86.837,197.659 86.837 C 197.537 86.837,197.378 87.068,197.304 87.351 M193.609 90.143 C 193.316 90.702,193.318 90.702,193.850 90.230 C 194.445 89.701,194.499 89.582,194.145 89.582 C 194.012 89.582,193.771 89.835,193.609 90.143 M228.261 89.982 C 228.433 90.060,228.500 90.244,228.410 90.390 C 228.317 90.541,228.361 90.585,228.512 90.492 C 228.658 90.402,228.842 90.469,228.920 90.641 C 228.998 90.813,229.034 90.731,229.001 90.458 C 228.966 90.176,228.726 89.936,228.444 89.901 C 228.171 89.868,228.089 89.904,228.261 89.982 M153.293 93.325 C 153.293 94.217,153.338 94.582,153.393 94.136 C 153.449 93.690,153.449 92.960,153.393 92.514 C 153.338 92.068,153.293 92.433,153.293 93.325 M99.136 93.450 C 99.137 94.136,99.186 94.387,99.243 94.008 C 99.301 93.628,99.299 93.067,99.240 92.760 C 99.181 92.453,99.134 92.764,99.136 93.450 M293.282 94.448 C 293.283 95.409,293.328 95.771,293.382 95.253 C 293.436 94.736,293.435 93.950,293.380 93.507 C 293.325 93.064,293.281 93.487,293.282 94.448 M248.151 106.800 C 248.151 114.417,248.183 117.533,248.222 113.724 C 248.261 109.916,248.261 103.684,248.222 99.875 C 248.183 96.067,248.151 99.183,248.151 106.800 M111.885 96.070 C 111.885 97.648,111.925 98.294,111.975 97.505 C 112.024 96.716,112.024 95.424,111.975 94.635 C 111.925 93.846,111.885 94.492,111.885 96.070 M164.057 105.677 C 164.057 111.853,164.090 114.344,164.130 111.212 C 164.169 108.080,164.169 103.027,164.129 99.983 C 164.090 96.939,164.057 99.501,164.057 105.677 M187.031 99.551 C 186.615 100.355,186.511 101.064,186.866 100.674 C 187.118 100.396,187.672 98.815,187.517 98.815 C 187.459 98.815,187.240 99.146,187.031 99.551 M153.328 112.165 C 153.328 118.478,153.360 121.025,153.400 117.824 C 153.439 114.624,153.439 109.459,153.400 106.346 C 153.360 103.233,153.328 105.852,153.328 112.165 M99.072 110.497 C 99.060 114.207,99.138 117.296,99.245 117.362 C 99.448 117.488,99.416 104.074,99.212 103.870 C 99.147 103.805,99.085 106.788,99.072 110.497 M289.011 106.684 C 288.834 106.885,288.778 107.053,288.886 107.057 C 288.994 107.061,288.886 107.179,288.646 107.319 C 288.406 107.459,288.213 107.708,288.217 107.873 C 288.227 108.218,289.457 106.892,289.457 106.536 C 289.457 106.227,289.396 106.248,289.011 106.684 M285.828 109.812 C 285.737 109.958,285.422 110.176,285.127 110.295 C 284.813 110.422,284.746 110.515,284.966 110.521 C 285.172 110.527,285.621 110.312,285.964 110.044 C 286.307 109.775,286.454 109.553,286.290 109.550 C 286.127 109.547,285.919 109.665,285.828 109.812 M184.462 114.036 C 184.462 114.517,184.513 114.713,184.576 114.473 C 184.639 114.233,184.639 113.840,184.576 113.600 C 184.513 113.359,184.462 113.556,184.462 114.036 M111.648 119.775 C 111.648 122.863,111.683 124.127,111.727 122.583 C 111.771 121.039,111.771 118.512,111.727 116.968 C 111.683 115.424,111.648 116.687,111.648 119.775 M184.462 115.783 C 184.462 116.263,184.513 116.460,184.576 116.220 C 184.639 115.979,184.639 115.586,184.576 115.346 C 184.513 115.106,184.462 115.303,184.462 115.783 M271.289 124.001 C 271.455 124.267,271.682 124.428,271.792 124.360 C 271.903 124.291,271.833 124.074,271.635 123.877 C 271.124 123.366,270.935 123.434,271.289 124.001 M163.751 125.016 C 163.751 125.496,163.802 125.692,163.865 125.452 C 163.928 125.212,163.928 124.819,163.865 124.579 C 163.802 124.339,163.751 124.535,163.751 125.016 M186.785 127.743 C 186.706 127.871,186.751 128.043,186.885 128.125 C 187.018 128.208,187.070 128.426,186.999 128.610 C 186.929 128.793,187.062 129.017,187.295 129.106 C 187.651 129.243,187.668 129.208,187.403 128.889 C 187.230 128.680,187.172 128.509,187.274 128.509 C 187.376 128.509,187.335 128.358,187.182 128.174 C 187.029 127.990,186.978 127.765,187.068 127.675 C 187.158 127.585,187.164 127.511,187.081 127.511 C 186.997 127.511,186.864 127.615,186.785 127.743 M276.731 131.417 C 276.731 131.559,276.956 131.879,277.230 132.127 C 277.505 132.376,277.729 132.779,277.729 133.025 C 277.729 133.270,277.826 133.530,277.944 133.603 C 278.063 133.676,278.147 133.528,278.132 133.275 C 278.102 132.789,276.731 130.970,276.731 131.417 M150.220 137.985 C 149.948 138.157,149.922 138.294,150.125 138.496 C 150.327 138.699,150.437 138.634,150.536 138.257 C 150.610 137.974,150.653 137.743,150.632 137.746 C 150.610 137.748,150.425 137.855,150.220 137.985 M114.552 139.134 C 114.881 139.531,115.284 139.605,115.284 139.268 C 115.284 139.147,115.053 138.987,114.771 138.913 C 114.349 138.803,114.310 138.843,114.552 139.134 M233.063 139.780 C 233.063 139.894,233.335 139.988,233.669 139.988 C 234.035 139.988,234.319 140.160,234.388 140.424 C 234.491 140.818,234.505 140.819,234.531 140.439 C 234.547 140.207,234.422 139.931,234.253 139.827 C 233.822 139.561,233.063 139.530,233.063 139.780 M116.004 140.681 C 116.171 140.993,116.421 141.179,116.561 141.092 C 116.700 141.006,116.779 140.915,116.735 140.890 C 116.692 140.865,116.441 140.680,116.179 140.478 C 115.729 140.133,115.719 140.145,116.004 140.681 M117.335 141.979 C 117.505 142.251,117.812 142.538,118.017 142.617 C 118.223 142.696,118.122 142.473,117.792 142.122 C 117.074 141.358,116.916 141.308,117.335 141.979 M283.971 142.642 C 283.969 142.799,284.198 143.192,284.481 143.516 C 284.884 143.979,284.939 143.998,284.739 143.606 C 284.306 142.759,283.975 142.345,283.971 142.642 M120.029 143.638 C 120.036 144.067,120.460 144.535,120.615 144.284 C 120.699 144.148,120.601 143.898,120.397 143.728 C 120.192 143.559,120.027 143.518,120.029 143.638 M300.456 143.687 C 300.446 143.869,300.792 144.374,301.226 144.808 C 301.798 145.380,301.935 145.446,301.722 145.049 C 301.561 144.747,301.278 144.411,301.094 144.303 C 300.910 144.194,300.696 143.936,300.618 143.731 C 300.518 143.466,300.470 143.453,300.456 143.687 M121.873 144.767 C 121.767 144.938,121.803 144.988,121.963 144.890 C 122.110 144.799,122.408 144.902,122.625 145.118 C 122.842 145.335,123.019 145.397,123.019 145.254 C 123.019 144.828,122.082 144.429,121.873 144.767 M286.215 146.477 C 286.507 146.888,286.792 147.224,286.849 147.224 C 287.096 147.224,286.360 145.990,286.039 145.867 C 285.805 145.777,285.865 145.986,286.215 146.477 M211.853 146.286 C 211.853 146.390,212.555 146.462,213.412 146.446 C 215.098 146.415,214.934 146.296,213.038 146.174 C 212.386 146.132,211.853 146.182,211.853 146.286 M232.938 151.216 C 232.853 151.354,232.849 151.571,232.928 151.698 C 233.007 151.826,232.820 152.107,232.513 152.322 C 232.074 152.630,232.043 152.714,232.369 152.714 C 232.859 152.714,233.116 152.357,233.204 151.552 C 233.273 150.925,233.186 150.815,232.938 151.216 M150.530 151.396 C 150.359 151.457,150.218 151.601,150.218 151.714 C 150.218 151.974,150.813 151.900,150.925 151.627 C 151.040 151.347,150.899 151.264,150.530 151.396 M308.422 152.714 C 308.422 152.988,308.527 153.213,308.656 153.213 C 308.784 153.213,308.873 152.988,308.852 152.714 C 308.831 152.439,308.726 152.215,308.618 152.215 C 308.510 152.215,308.422 152.439,308.422 152.714 M230.630 152.879 C 230.459 152.948,230.318 153.112,230.318 153.242 C 230.318 153.388,230.487 153.393,230.755 153.255 C 230.995 153.132,231.360 153.080,231.566 153.141 C 231.899 153.238,231.899 153.221,231.566 152.986 C 231.159 152.698,231.096 152.691,230.630 152.879 M114.515 153.275 C 114.868 153.741,115.929 153.901,115.648 153.445 C 115.557 153.299,115.340 153.234,115.164 153.301 C 114.989 153.368,114.697 153.292,114.515 153.131 C 114.242 152.889,114.242 152.913,114.515 153.275 M195.134 153.256 C 195.134 153.369,195.350 153.462,195.613 153.462 C 195.876 153.462,196.287 153.537,196.527 153.629 C 196.802 153.735,196.903 153.700,196.800 153.533 C 196.601 153.212,195.134 152.968,195.134 153.256 M247.286 154.269 C 247.286 154.383,247.679 154.450,248.160 154.417 C 248.640 154.385,249.033 154.292,249.033 154.210 C 249.033 154.128,248.640 154.061,248.160 154.061 C 247.679 154.061,247.286 154.154,247.286 154.269 M200.016 154.487 C 200.184 154.758,200.800 154.781,200.959 154.523 C 201.023 154.420,200.806 154.319,200.477 154.300 C 200.148 154.280,199.941 154.364,200.016 154.487 M296.195 154.398 C 296.195 154.501,296.745 154.585,297.418 154.585 C 298.092 154.585,298.590 154.501,298.527 154.398 C 298.463 154.295,297.912 154.211,297.303 154.211 C 296.693 154.211,296.195 154.295,296.195 154.398 M302.125 154.392 C 302.574 154.447,303.248 154.446,303.623 154.389 C 303.998 154.332,303.631 154.287,302.807 154.288 C 301.984 154.290,301.677 154.336,302.125 154.392 M206.279 155.396 C 206.216 155.499,206.743 155.599,207.449 155.617 C 208.400 155.642,208.572 155.600,208.110 155.455 C 207.277 155.193,206.419 155.165,206.279 155.396 M214.039 155.635 C 214.349 155.695,214.799 155.692,215.037 155.630 C 215.276 155.568,215.022 155.519,214.473 155.521 C 213.924 155.524,213.729 155.575,214.039 155.635 M179.351 165.616 C 179.660 165.675,180.165 165.675,180.474 165.616 C 180.783 165.556,180.530 165.508,179.913 165.508 C 179.295 165.508,179.042 165.556,179.351 165.616 M221.834 165.579 C 222.761 165.781,224.034 165.816,223.923 165.637 C 223.856 165.529,223.274 165.453,222.630 165.469 C 221.987 165.485,221.628 165.534,221.834 165.579 M169.183 165.930 C 169.183 166.173,172.378 166.071,172.629 165.820 C 172.701 165.748,171.955 165.689,170.971 165.689 C 169.988 165.689,169.183 165.797,169.183 165.930 M232.439 165.939 C 232.635 166.255,233.571 166.255,234.061 165.939 C 234.335 165.762,234.146 165.696,233.360 165.693 C 232.706 165.691,232.345 165.787,232.439 165.939 M135.246 168.398 C 135.246 168.516,135.572 168.600,135.970 168.586 C 136.369 168.571,136.643 168.475,136.580 168.372 C 136.420 168.112,135.246 168.136,135.246 168.398 M122.770 169.682 C 122.183 169.870,122.195 169.883,122.972 169.907 C 123.464 169.921,123.735 169.831,123.643 169.682 C 123.558 169.545,123.468 169.444,123.441 169.457 C 123.415 169.471,123.113 169.572,122.770 169.682 M282.969 169.916 C 282.969 170.045,283.186 170.134,283.451 170.114 C 283.716 170.094,283.878 169.988,283.811 169.880 C 283.640 169.603,282.969 169.632,282.969 169.916 M94.067 173.429 C 93.830 173.575,93.975 173.637,94.520 173.621 C 94.961 173.609,95.321 173.527,95.321 173.440 C 95.321 173.195,94.458 173.188,94.067 173.429 M92.077 173.690 C 92.077 173.819,92.302 173.924,92.576 173.924 C 92.851 173.924,93.075 173.835,93.075 173.727 C 93.075 173.619,92.851 173.514,92.576 173.493 C 92.302 173.473,92.077 173.561,92.077 173.690 M82.470 175.185 C 82.086 175.343,82.158 175.375,82.783 175.322 C 83.230 175.284,83.646 175.202,83.708 175.140 C 83.909 174.939,82.985 174.972,82.470 175.185 M197.083 175.358 C 199.047 175.400,202.191 175.400,204.070 175.358 C 205.949 175.316,204.342 175.281,200.499 175.281 C 196.656 175.281,195.119 175.316,197.083 175.358 M228.045 175.495 C 228.155 175.605,229.077 175.660,230.093 175.618 L 231.940 175.541 229.893 175.419 C 228.767 175.351,227.935 175.386,228.045 175.495 M172.858 175.601 C 173.301 175.656,174.087 175.657,174.605 175.603 C 175.122 175.549,174.760 175.504,173.799 175.503 C 172.838 175.502,172.415 175.546,172.858 175.601 M158.519 175.850 C 158.898 175.907,159.459 175.906,159.766 175.846 C 160.073 175.787,159.763 175.740,159.077 175.742 C 158.391 175.744,158.139 175.792,158.519 175.850 M161.388 175.847 C 161.698 175.907,162.147 175.905,162.386 175.842 C 162.625 175.780,162.371 175.731,161.822 175.734 C 161.273 175.736,161.077 175.787,161.388 175.847 M242.611 175.850 C 242.990 175.907,243.552 175.906,243.859 175.846 C 244.166 175.787,243.855 175.740,243.169 175.742 C 242.483 175.744,242.232 175.792,242.611 175.850 M245.228 175.847 C 245.536 175.906,246.042 175.906,246.351 175.847 C 246.659 175.787,246.407 175.739,245.789 175.739 C 245.172 175.739,244.919 175.787,245.228 175.847 M75.421 176.342 C 75.661 176.404,76.054 176.404,76.294 176.342 C 76.535 176.279,76.338 176.228,75.858 176.228 C 75.377 176.228,75.181 176.279,75.421 176.342 M137.367 176.669 L 136.369 176.847 137.243 176.853 C 137.723 176.857,138.453 176.774,138.865 176.669 C 139.880 176.410,138.810 176.410,137.367 176.669 M142.046 176.591 C 142.286 176.654,142.679 176.654,142.920 176.591 C 143.160 176.528,142.963 176.477,142.483 176.477 C 142.002 176.477,141.806 176.528,142.046 176.591 M262.570 176.591 C 262.810 176.654,263.203 176.654,263.444 176.591 C 263.684 176.528,263.487 176.477,263.007 176.477 C 262.527 176.477,262.330 176.528,262.570 176.591 M267.199 176.743 C 267.982 176.891,268.612 176.901,268.742 176.768 C 268.872 176.636,268.329 176.534,267.419 176.518 L 265.876 176.493 267.199 176.743 M269.557 176.841 C 269.797 176.904,270.190 176.904,270.430 176.841 C 270.671 176.778,270.474 176.727,269.994 176.727 C 269.513 176.727,269.317 176.778,269.557 176.841 M272.459 176.988 C 272.579 177.108,273.000 177.167,273.394 177.117 C 274.054 177.035,274.037 177.018,273.176 176.899 C 272.639 176.824,272.333 176.862,272.459 176.988 M325.637 178.614 L 325.759 180.536 325.836 178.815 C 325.879 177.867,325.824 177.002,325.714 176.892 C 325.604 176.782,325.570 177.556,325.637 178.614 M132.193 177.095 C 132.503 177.154,132.952 177.152,133.191 177.090 C 133.429 177.027,133.175 176.978,132.626 176.981 C 132.077 176.984,131.882 177.035,132.193 177.095 M119.152 177.667 C 118.776 177.828,118.946 177.886,119.838 177.899 C 120.490 177.909,121.023 177.804,121.023 177.667 C 121.023 177.367,119.849 177.367,119.152 177.667 M284.217 177.667 C 284.217 177.804,284.442 177.916,284.716 177.916 C 284.991 177.916,285.215 177.804,285.215 177.667 C 285.215 177.530,284.991 177.417,284.716 177.417 C 284.442 177.417,284.217 177.530,284.217 177.667 M113.409 177.911 C 113.595 178.212,114.452 178.252,114.628 177.968 C 114.695 177.859,114.413 177.745,114.001 177.713 C 113.543 177.678,113.313 177.755,113.409 177.911 M117.342 177.839 C 117.583 177.902,117.976 177.902,118.216 177.839 C 118.456 177.776,118.260 177.725,117.779 177.725 C 117.299 177.725,117.102 177.776,117.342 177.839 M302.597 178.852 C 302.534 178.955,302.867 179.048,303.338 179.058 C 303.865 179.070,304.071 179.000,303.875 178.875 C 303.472 178.619,302.748 178.606,302.597 178.852 M96.569 179.218 C 96.569 179.458,96.792 179.444,97.442 179.163 C 97.873 178.977,97.847 178.952,97.255 178.985 C 96.878 179.006,96.569 179.111,96.569 179.218 M306.051 179.164 C 306.326 179.282,306.775 179.379,307.049 179.379 L 307.548 179.379 307.049 179.164 C 306.775 179.046,306.326 178.950,306.051 178.950 L 305.552 178.950 306.051 179.164 " stroke="none" fill="#64ccec" fill-rule="evenodd"></path><path id="path2" d="M210.168 155.642 C 210.820 155.693,211.887 155.693,212.539 155.642 C 213.191 155.591,212.658 155.548,211.354 155.548 C 210.050 155.548,209.517 155.591,210.168 155.642 " stroke="none" fill="#68c4ec" fill-rule="evenodd"></path><path id="path3" d="M210.168 155.642 C 210.820 155.693,211.887 155.693,212.539 155.642 C 213.191 155.591,212.658 155.548,211.354 155.548 C 210.050 155.548,209.517 155.591,210.168 155.642 " stroke="none" fill="#68c4ec" fill-rule="evenodd"></path><path id="path4" d="M210.168 155.642 C 210.820 155.693,211.887 155.693,212.539 155.642 C 213.191 155.591,212.658 155.548,211.354 155.548 C 210.050 155.548,209.517 155.591,210.168 155.642 " stroke="none" fill="#68c4ec" fill-rule="evenodd"></path></g></svg>